# xmcd
#
# Track frame offsets: 
#        150
#        31070
#        60891
#        85040
#        104457
#        113291
#        129914
#        153129
#        175311
#        210194
#        225339
#        243767
#
# Disc length: 3801 seconds
#
# Revision: 0
# Processed by: cddbd v1.5.2PL0 Copyright (c) Steve Scherf et al.
# Submitted via: ExactAudioCopy v0.99pb3
#
DISCID=730ed70c
DTITLE=Little Freddie King - At Home In The New Orleans Musicians' Vil
DYEAR=2010
DGENRE=Blues
TTITLE0=Playing A Dangerous Game
TTITLE1=Lorriina
TTITLE2=Sweet Home New Orleans
TTITLE3=Dr. Bones
TTITLE4=Talk
TTITLE5=Texas Airline Blues
TTITLE6=I'm In Love With You Baby
TTITLE7=Made Me Love You
TTITLE8=Little Girl What's Wrong With You
TTITLE9=Mardis Gras Stomp
TTITLE10=Angola Blues
TTITLE11=Blues Drive Me Out Of My Mind
EXTD=
EXTT0=
EXTT1=
EXTT2=
EXTT3=
EXTT4=
EXTT5=
EXTT6=
EXTT7=
EXTT8=
EXTT9=
EXTT10=
EXTT11=
PLAYORDER=
